<svg width="508" height="420" viewBox="0 0 508 420" fill="none" xmlns="http://www.w3.org/2000/svg">
<path d="M316.03 189.846L316.021 189.85L316.013 189.856C314.029 191.119 312.686 193.882 311.862 197.921L311.86 197.931L311.859 197.94C311.197 201.998 310.87 208.438 310.87 217.236V245.342C310.87 252.564 309.893 258.813 307.953 264.098L307.953 264.098L307.95 264.106C306.161 269.235 304.054 273.391 301.638 276.588C299.196 279.82 296.931 282.271 294.845 283.957L294.376 284.337L294.836 284.727C296.596 286.222 298.699 288.579 301.147 291.817L301.156 291.83L301.166 291.841C303.746 294.854 306.013 298.632 307.963 303.185L307.966 303.192C309.898 307.516 310.87 312.416 310.87 317.901V352.316C310.87 360.924 311.197 367.268 311.859 371.325L311.86 371.335L311.862 371.345C312.686 375.384 314.029 378.147 316.013 379.41L316.021 379.415L316.03 379.42C318.1 380.629 320.901 381.209 324.387 381.209H332.974V415.198H314.071C309.494 415.198 304.916 415.103 300.339 414.912C295.986 414.723 291.963 413.689 288.264 411.811L288.254 411.806L288.245 411.802C284.62 410.145 281.664 406.909 279.405 402.013C277.32 397.328 276.257 390.433 276.257 381.283V333.962C276.257 328.184 275.515 322.783 274.027 317.762C272.537 312.543 270.294 308.264 267.286 304.946C264.355 301.714 260.704 300.033 256.363 299.913V267.612C260.696 267.321 264.342 265.654 267.275 262.61L267.281 262.604L267.286 262.599C270.292 259.284 272.535 255.103 274.026 250.073L274.027 250.068C275.515 244.858 276.257 239.363 276.257 233.583V188.27C276.257 179.117 277.32 172.222 279.407 167.537C281.502 162.832 284.3 159.586 287.776 157.74C291.472 155.864 295.575 154.829 300.093 154.641L300.103 154.64L300.113 154.639C304.684 154.258 309.336 154.068 314.071 154.068H332.974V188.057H324.387C320.901 188.057 318.1 188.637 316.03 189.846ZM500.874 341.588L500.873 341.593C496.95 358.581 491.884 373.651 485.68 386.805L485.679 386.808C479.546 400 473.022 410.849 466.112 419.364L438.739 404.633C445.013 396.095 450.647 386.082 455.644 374.6C460.737 363.091 464.758 350.054 467.711 335.495L467.711 335.494C470.664 320.744 472.614 304.555 472.614 286.927C472.614 269.3 470.664 253.206 467.711 238.646C464.758 223.896 460.737 210.764 455.644 199.254C450.648 187.775 445.015 177.856 438.742 169.502L466.114 154.493C473.024 163.008 479.547 173.856 485.679 187.047C491.884 200.394 496.949 215.56 500.873 232.549L500.874 232.554C504.957 249.336 507 267.46 507 286.927C507 306.394 504.957 324.614 500.874 341.588Z" stroke="#FF3A5E"/>
<path d="M122.419 6.04819C122.126 5.86122 121.305 5.26292 120.366 4.36546L118.607 2.96319L116.554 1.84137L114.794 1.28046L112.741 1H110.981L108.342 1.28046L105.995 1.84137L104.236 2.68273L102.183 3.80455L100.716 4.92637L99.5431 6.04819L5.98581 123.278L3.34627 127.766L2.17313 132.533L1 138.143V143.191L2.17313 148.519L4.5194 154.689L96.9036 268.835L102.769 271.92L107.462 272.761H110.981L114.501 271.639L117.727 269.956L120.366 267.432L123.299 263.506L183.422 73.6379L235.04 138.703L154.094 241.07L152.334 244.716L150.868 253.971L151.748 259.86L154.094 267.152L157.613 272.481L161.426 275.285L167.292 277.529H171.691L176.677 276.126L181.369 272.481L274.926 155.25L277.859 149.922L279.912 141.228L279.326 133.655L275.806 124.12L190.168 16.1446L186.648 13.0596L182.542 10.8159L178.143 9.97456L174.33 9.69411L171.104 9.97456L168.171 10.8159L165.532 12.2182L162.892 14.1814L160.839 16.7055L159.666 19.51L99.5431 208.817L45.2858 140.106L124.179 40.5442L127.112 35.496L127.992 32.6914L128.871 29.8869L129.165 26.8019V24.2778V21.1928L128.578 17.8273L127.698 15.0228L126.525 11.9378L124.765 9.1332C124.57 8.85274 124.003 8.06747 123.299 7.17001L122.419 6.04819Z" stroke="#FF3A5E"/>
</svg>
